<svg width="25" height="24" viewBox="0 0 25 24" fill="none" xmlns="http://www.w3.org/2000/svg">
<path d="M2.66211 2H4.40211C5.48211 2 6.33211 2.93 6.24211 4L5.41211 13.96C5.27211 15.59 6.5621 16.99 8.2021 16.99H18.8521C20.2921 16.99 21.5521 15.81 21.6621 14.38L22.2021 6.88C22.3221 5.22 21.0621 3.87 19.3921 3.87H6.48212" stroke="#292D32" stroke-width="1.5" stroke-miterlimit="10" stroke-linecap="round" stroke-linejoin="round"/>
<path d="M16.9121 22C17.6025 22 18.1621 21.4404 18.1621 20.75C18.1621 20.0596 17.6025 19.5 16.9121 19.5C16.2218 19.5 15.6621 20.0596 15.6621 20.75C15.6621 21.4404 16.2218 22 16.9121 22Z" stroke="#292D32" stroke-width="1.5" stroke-miterlimit="10" stroke-linecap="round" stroke-linejoin="round"/>
<path d="M8.91211 22C9.60247 22 10.1621 21.4404 10.1621 20.75C10.1621 20.0596 9.60247 19.5 8.91211 19.5C8.22175 19.5 7.66211 20.0596 7.66211 20.75C7.66211 21.4404 8.22175 22 8.91211 22Z" stroke="#292D32" stroke-width="1.5" stroke-miterlimit="10" stroke-linecap="round" stroke-linejoin="round"/>
<path d="M9.66211 8H21.6621" stroke="#292D32" stroke-width="1.5" stroke-miterlimit="10" stroke-linecap="round" stroke-linejoin="round"/>
</svg>
