<svg width="132" height="28" viewBox="0 0 132 28" fill="none" xmlns="http://www.w3.org/2000/svg">
<path d="M19.6719 17.7354C19.6719 19.376 19.4492 20.8291 19.0039 22.0947C18.5703 23.3604 17.9316 24.4326 17.0879 25.3115C16.2559 26.1787 15.248 26.835 14.0645 27.2803C12.8926 27.7256 11.5684 27.9482 10.0918 27.9482C8.70898 27.9482 7.4375 27.7256 6.27734 27.2803C5.12891 26.835 4.12695 26.1787 3.27148 25.3115C2.42773 24.4326 1.77148 23.3604 1.30273 22.0947C0.845703 20.8291 0.617188 19.376 0.617188 17.7354C0.617188 15.5557 1.00391 13.71 1.77734 12.1982C2.55078 10.6865 3.65234 9.53809 5.08203 8.75293C6.51172 7.96777 8.2168 7.5752 10.1973 7.5752C12.0371 7.5752 13.666 7.96777 15.084 8.75293C16.5137 9.53809 17.6328 10.6865 18.4414 12.1982C19.2617 13.71 19.6719 15.5557 19.6719 17.7354ZM6.08398 17.7354C6.08398 19.0244 6.22461 20.1084 6.50586 20.9873C6.78711 21.8662 7.22656 22.5283 7.82422 22.9736C8.42188 23.4189 9.20117 23.6416 10.1621 23.6416C11.1113 23.6416 11.8789 23.4189 12.4648 22.9736C13.0625 22.5283 13.4961 21.8662 13.7656 20.9873C14.0469 20.1084 14.1875 19.0244 14.1875 17.7354C14.1875 16.4346 14.0469 15.3564 13.7656 14.501C13.4961 13.6338 13.0625 12.9834 12.4648 12.5498C11.8672 12.1162 11.0879 11.8994 10.127 11.8994C8.70898 11.8994 7.67773 12.3857 7.0332 13.3584C6.40039 14.3311 6.08398 15.79 6.08398 17.7354Z" fill="#FF0000"/>
<path d="M34.9648 11.9697H30.3242V27.5967H24.9629V11.9697H22.0098V9.38574L24.9629 7.94434V6.50293C24.9629 4.82715 25.2441 3.52637 25.8066 2.60059C26.3809 1.66309 27.1836 1.00684 28.2148 0.631836C29.2578 0.245117 30.4883 0.0517578 31.9062 0.0517578C32.9492 0.0517578 33.8984 0.139648 34.7539 0.31543C35.6094 0.479492 36.3066 0.666992 36.8457 0.87793L35.4746 4.81543C35.0645 4.68652 34.6191 4.56934 34.1387 4.46387C33.6582 4.3584 33.1074 4.30566 32.4863 4.30566C31.7363 4.30566 31.1855 4.53418 30.834 4.99121C30.4941 5.43652 30.3242 6.01074 30.3242 6.71387V7.94434H34.9648V11.9697ZM48.9043 11.9697H44.2637V27.5967H38.9023V11.9697H35.9492V9.38574L38.9023 7.94434V6.50293C38.9023 4.82715 39.1836 3.52637 39.7461 2.60059C40.3203 1.66309 41.123 1.00684 42.1543 0.631836C43.1973 0.245117 44.4277 0.0517578 45.8457 0.0517578C46.8887 0.0517578 47.8379 0.139648 48.6934 0.31543C49.5488 0.479492 50.2461 0.666992 50.7852 0.87793L49.4141 4.81543C49.0039 4.68652 48.5586 4.56934 48.0781 4.46387C47.5977 4.3584 47.0469 4.30566 46.4258 4.30566C45.6758 4.30566 45.125 4.53418 44.7734 4.99121C44.4336 5.43652 44.2637 6.01074 44.2637 6.71387V7.94434H48.9043V11.9697ZM57.3242 27.5967H51.9629V0.245117H57.3242V27.5967Z" fill="#FF0000"/>
<path d="M68.3105 7.94434V27.5967H62.9492V7.94434H68.3105ZM65.6387 0.245117C66.4355 0.245117 67.1211 0.432617 67.6953 0.807617C68.2695 1.1709 68.5566 1.85645 68.5566 2.86426C68.5566 3.86035 68.2695 4.55176 67.6953 4.93848C67.1211 5.31348 66.4355 5.50098 65.6387 5.50098C64.8301 5.50098 64.1387 5.31348 63.5645 4.93848C63.002 4.55176 62.7207 3.86035 62.7207 2.86426C62.7207 1.85645 63.002 1.1709 63.5645 0.807617C64.1387 0.432617 64.8301 0.245117 65.6387 0.245117Z" fill="#FF0000"/>
<path d="M85.1152 7.5752C87.2129 7.5752 88.9004 8.14941 90.1777 9.29785C91.4551 10.4346 92.0938 12.2627 92.0938 14.7822V27.5967H86.7324V16.1182C86.7324 14.7119 86.4746 13.6514 85.959 12.9365C85.4551 12.2217 84.6582 11.8643 83.5684 11.8643C81.9277 11.8643 80.8086 12.4209 80.2109 13.5342C79.6133 14.6475 79.3145 16.2529 79.3145 18.3506V27.5967H73.9531V7.94434H78.0488L78.7695 10.458H79.0684C79.4902 9.77832 80.0117 9.22754 80.6328 8.80566C81.2656 8.38379 81.9629 8.07324 82.7246 7.87402C83.498 7.6748 84.2949 7.5752 85.1152 7.5752Z" fill="#FF0000"/>
<path d="M105.717 7.5752C107.533 7.5752 109.098 7.92676 110.41 8.62988C111.723 9.32129 112.736 10.3291 113.451 11.6533C114.166 12.9775 114.523 14.5947 114.523 16.5049V19.1064H101.85C101.908 20.6182 102.359 21.8076 103.203 22.6748C104.059 23.5303 105.242 23.958 106.754 23.958C108.008 23.958 109.156 23.8291 110.199 23.5713C111.242 23.3135 112.314 22.9268 113.416 22.4111V26.5596C112.443 27.04 111.424 27.3916 110.357 27.6143C109.303 27.8369 108.02 27.9482 106.508 27.9482C104.539 27.9482 102.793 27.585 101.27 26.8584C99.7578 26.1318 98.5684 25.0244 97.7012 23.5361C96.8457 22.0479 96.418 20.1729 96.418 17.9111C96.418 15.6143 96.8047 13.7041 97.5781 12.1807C98.3633 10.6455 99.4531 9.49707 100.848 8.73535C102.242 7.96191 103.865 7.5752 105.717 7.5752ZM105.752 11.3896C104.709 11.3896 103.842 11.7236 103.15 12.3916C102.471 13.0596 102.078 14.1084 101.973 15.5381H109.496C109.484 14.7412 109.338 14.0322 109.057 13.4111C108.787 12.79 108.377 12.2979 107.826 11.9346C107.287 11.5713 106.596 11.3896 105.752 11.3896Z" fill="#FF0000"/>
<path d="M129.852 7.5752C130.121 7.5752 130.432 7.59277 130.783 7.62793C131.146 7.65137 131.439 7.68652 131.662 7.7334L131.258 12.7607C131.082 12.7021 130.83 12.6611 130.502 12.6377C130.186 12.6025 129.91 12.585 129.676 12.585C128.984 12.585 128.311 12.6729 127.654 12.8486C127.01 13.0244 126.43 13.3115 125.914 13.71C125.398 14.0967 124.988 14.6123 124.684 15.2568C124.391 15.8896 124.244 16.6689 124.244 17.5947V27.5967H118.883V7.94434H122.943L123.734 11.249H123.998C124.385 10.5811 124.865 9.97168 125.439 9.4209C126.025 8.8584 126.688 8.41309 127.426 8.08496C128.176 7.74512 128.984 7.5752 129.852 7.5752Z" fill="#FF0000"/>
</svg>
